<?xml version="1.0" standalone="no"?>
<!DOCTYPE svg PUBLIC "-//W3C//DTD SVG 20010904//EN"
 "http://www.w3.org/TR/2001/REC-SVG-20010904/DTD/svg10.dtd">
<svg version="1.0" xmlns="http://www.w3.org/2000/svg"
 width="89.000000pt" height="89.000000pt" viewBox="0 0 89.000000 89.000000"
 preserveAspectRatio="xMidYMid meet">
<metadata>
Created by potrace 1.11, written by Peter Selinger 2001-2013
</metadata>
<g transform="translate(0.000000,89.000000) scale(0.100000,-0.100000)"
fill="#000000" stroke="none">
<path d="M288 787 l-248 -81 0 -266 0 -266 242 -78 c133 -43 247 -80 253 -82
6 -3 82 92 168 211 l157 215 -156 215 c-87 118 -160 215 -163 214 -3 -1 -117
-37 -253 -82z m242 -167 l0 -40 -95 0 -95 0 0 -45 0 -45 85 0 85 0 0 -40 0
-40 -85 0 -85 0 0 -50 0 -50 105 0 105 0 0 -40 0 -40 -155 0 -155 0 0 215 0
215 145 0 145 0 0 -40z"/>
</g>
</svg>
